<svg xmlns="http://www.w3.org/2000/svg" viewBox="0 0 149.27 144.38"><defs><style>.cls-1{fill:#1d1d1b;}.cls-2,.cls-3,.cls-4{fill:none;}.cls-2,.cls-3{stroke:#fff;stroke-miterlimit:10;}.cls-3{stroke-linecap:square;stroke-width:3.22px;}.cls-4{stroke:#efeeee;stroke-linejoin:bevel;stroke-width:0.8px;}</style></defs><title>Asset 3</title><g id="Layer_2" data-name="Layer 2"><g id="Layer_1-2" data-name="Layer 1"><polygon class="cls-1" points="122.37 34.59 64.92 1.5 62.31 0 59.71 1.5 2.44 34.59 0 36.09 0 39.1 0 105.28 0 108.29 2.44 109.79 59.8 142.89 62.35 144.38 64.93 142.89 122.38 109.79 125 108.29 125 105.28 125 39.1 125 36.09 122.37 34.59"/><polyline class="cls-2" points="53.41 7.78 62.52 2.52 71.58 7.76"/><polyline class="cls-2" points="2.24 47.38 2.24 37.35 10.92 32.33"/><polyline class="cls-2" points="114.37 32.24 123.17 37.32 123.17 47.48"/><polyline class="cls-2" points="123.32 96.96 123.32 107.02 114.57 112.08"/><polyline class="cls-2" points="10.89 112.26 2.12 107.19 2.12 97.08"/><polyline class="cls-2" points="71.14 136.85 62.49 141.85 53.85 136.86"/><polyline class="cls-3" points="44.78 117.62 37.52 110.35 37.52 59.5 59.31 59.5 59.31 74.03 52.05 81.3 44.78 81.3"/><polyline class="cls-3" points="74.97 66.77 82.24 59.5 89.5 59.5 89.5 81.3 67.71 81.3 67.71 30.45 74.97 23.18"/><line class="cls-4" x1="43.78" y1="88.56" x2="43.78" y2="95.83"/><line class="cls-4" x1="49.32" y1="88.56" x2="49.32" y2="95.83"/><line class="cls-4" x1="54.86" y1="88.56" x2="54.86" y2="95.83"/><line class="cls-4" x1="60.4" y1="88.56" x2="60.4" y2="95.83"/><line class="cls-4" x1="66.13" y1="89.1" x2="91.08" y2="89.1"/><line class="cls-4" x1="66.13" y1="95.41" x2="91.08" y2="95.41"/><text></text></g></g></svg>