<svg xmlns="http://www.w3.org/2000/svg" viewBox="0 0 126 145.53"><defs><style>.cls-1{fill:#fff;stroke:#fff;}.cls-1,.cls-2,.cls-3{stroke-miterlimit:10;}.cls-2,.cls-3,.cls-4{fill:none;stroke:#060706;}.cls-3{stroke-linecap:square;stroke-width:3.22px;}.cls-4{stroke-linejoin:bevel;stroke-width:0.8px;}</style></defs><title>Asset 2</title><g id="Layer_2" data-name="Layer 2"><g id="Layer_2-2" data-name="Layer 2"><polygon class="cls-1" points="122.87 35.17 65.42 2.08 62.81 0.58 60.21 2.08 2.94 35.17 0.5 36.67 0.5 39.68 0.5 105.86 0.5 108.87 2.94 110.37 60.3 143.46 62.85 144.95 65.43 143.46 122.88 110.37 125.5 108.87 125.5 105.86 125.5 39.68 125.5 36.67 122.87 35.17"/><polyline class="cls-2" points="53.91 8.36 63.02 3.1 72.08 8.34"/><polyline class="cls-2" points="2.74 47.96 2.74 37.93 11.42 32.91"/><polyline class="cls-2" points="114.87 32.81 123.67 37.9 123.67 48.05"/><polyline class="cls-2" points="123.82 97.54 123.82 107.6 115.07 112.66"/><polyline class="cls-2" points="11.39 112.84 2.62 107.77 2.62 97.66"/><polyline class="cls-2" points="71.64 137.43 62.99 142.43 54.35 137.44"/><polyline class="cls-3" points="45.28 118.2 38.02 110.93 38.02 60.08 59.81 60.08 59.81 74.61 52.55 81.88 45.28 81.88"/><polyline class="cls-3" points="75.47 67.35 82.74 60.08 90 60.08 90 81.88 68.21 81.88 68.21 31.03 75.47 23.76"/><line class="cls-4" x1="44.28" y1="89.14" x2="44.28" y2="96.41"/><line class="cls-4" x1="49.82" y1="89.14" x2="49.82" y2="96.41"/><line class="cls-4" x1="55.36" y1="89.14" x2="55.36" y2="96.41"/><line class="cls-4" x1="60.9" y1="89.14" x2="60.9" y2="96.41"/><line class="cls-4" x1="66.63" y1="89.67" x2="91.58" y2="89.67"/><line class="cls-4" x1="66.63" y1="95.98" x2="91.58" y2="95.98"/></g></g></svg>