<svg xmlns="http://www.w3.org/2000/svg" viewBox="0 0 395.98 146.24"><defs><style>.cls-1{fill:#1d1d1b;stroke:#1d1d1b;}.cls-1,.cls-2{stroke-width:0.5px;}.cls-2,.cls-3{fill:none;stroke:#fff;}.cls-2{stroke-linejoin:bevel;}.cls-3{stroke-linecap:square;stroke-width:4px;}</style></defs><title>Asset 79</title><g id="Layer_2" data-name="Layer 2"><g id="PB_black" data-name="PB black"><rect class="cls-1" x="0.25" y="0.25" width="395.48" height="145.74"/><line class="cls-2" x1="43.75" y1="93.19" x2="43.75" y2="102.19"/><line class="cls-2" x1="52.75" y1="93.19" x2="52.75" y2="102.19"/><line class="cls-2" x1="61.75" y1="93.19" x2="61.75" y2="102.19"/><line class="cls-2" x1="70.75" y1="93.19" x2="70.75" y2="102.19"/><line class="cls-2" x1="79.75" y1="93.19" x2="79.75" y2="102.19"/><line class="cls-2" x1="115.75" y1="93.19" x2="115.75" y2="102.19"/><line class="cls-2" x1="124.75" y1="93.19" x2="124.75" y2="102.19"/><line class="cls-2" x1="133.75" y1="93.19" x2="133.75" y2="102.19"/><line class="cls-2" x1="142.75" y1="93.19" x2="142.75" y2="102.19"/><line class="cls-2" x1="160.75" y1="93.19" x2="160.75" y2="102.19"/><line class="cls-2" x1="169.75" y1="93.19" x2="169.75" y2="102.19"/><line class="cls-2" x1="205.75" y1="93.19" x2="205.75" y2="102.19"/><line class="cls-2" x1="232.75" y1="93.19" x2="232.75" y2="102.19"/><line class="cls-2" x1="259.75" y1="93.19" x2="259.75" y2="102.19"/><line class="cls-2" x1="268.75" y1="93.19" x2="268.75" y2="102.19"/><line class="cls-2" x1="277.75" y1="93.19" x2="277.75" y2="102.19"/><line class="cls-2" x1="286.75" y1="93.19" x2="286.75" y2="102.19"/><line class="cls-2" x1="295.75" y1="93.19" x2="295.75" y2="102.19"/><line class="cls-2" x1="304.75" y1="93.19" x2="304.75" y2="102.19"/><line class="cls-2" x1="313.75" y1="93.19" x2="313.75" y2="102.19"/><line class="cls-2" x1="322.75" y1="93.19" x2="322.75" y2="102.19"/><line class="cls-2" x1="340.75" y1="93.19" x2="358.75" y2="93.19"/><line class="cls-2" x1="340.75" y1="102.19" x2="358.75" y2="102.19"/><line class="cls-2" x1="331.75" y1="93.19" x2="331.75" y2="102.19"/></g><g id="PB_white" data-name="PB white"><polyline class="cls-3" points="44.62 129.06 35.62 120.06 35.62 57.06 62.62 57.06 62.62 75.06 53.62 84.06 44.62 84.06"/><polyline class="cls-3" points="70.62 84.06 70.62 66.06 79.62 57.06 88.62 57.06"/><polygon class="cls-3" points="100.62 57.06 91.62 66.06 91.62 84.06 109.62 84.06 118.62 75.06 118.62 57.06 100.62 57.06"/><polyline class="cls-3" points="145.62 129.06 154.62 120.06 154.62 57.06 127.62 57.06 127.62 75.06 136.62 84.06 145.62 84.06"/><polyline class="cls-3" points="163.62 84.06 163.62 66.06 172.62 57.06 181.62 57.06"/><polyline class="cls-3" points="205.62 84.06 187.62 84.06 187.62 66.06 196.62 57.06 214.62 57.06 214.62 66.06 205.62 75.06"/><polyline class="cls-3" points="223.62 85.06 232.62 85.06 241.62 76.06"/><polyline class="cls-3" points="241.62 76.06 223.62 58.06 232.62 49.06 241.62 49.06"/><polyline class="cls-3" points="244.62 85.06 253.62 85.06 262.62 76.06 244.62 58.06 253.62 49.06 262.62 49.06"/><polyline class="cls-3" points="281.62 66.06 290.62 57.06 299.62 57.06 299.62 84.06 272.62 84.06 272.62 21.06 281.62 12.06"/><polyline class="cls-3" points="345.62 84.06 345.62 66.06 354.62 57.06 363.62 57.06"/><polyline class="cls-3" points="309.69 57.06 327.69 57.06 336.69 66.06 336.69 84.06 309.69 84.06 309.69 75.06 318.69 66.06"/></g></g></svg>