<svg xmlns="http://www.w3.org/2000/svg" viewBox="0 0 395.98 146.24"><defs><style>.cls-1{fill:#fff;}.cls-1,.cls-2,.cls-3{stroke:#1d1d1b;}.cls-1,.cls-2{stroke-width:0.5px;}.cls-2,.cls-3{fill:none;}.cls-2{stroke-linejoin:bevel;}.cls-3{stroke-linecap:square;stroke-width:4px;}</style></defs><title>Asset 74</title><g id="Layer_2" data-name="Layer 2"><g id="PB_white_BG" data-name="PB white BG"><rect class="cls-1" x="0.25" y="0.25" width="395.48" height="145.74"/><line class="cls-2" x1="41.75" y1="95.75" x2="41.75" y2="104.75"/><line class="cls-2" x1="50.75" y1="95.75" x2="50.75" y2="104.75"/><line class="cls-2" x1="59.75" y1="95.75" x2="59.75" y2="104.75"/><line class="cls-2" x1="68.75" y1="95.75" x2="68.75" y2="104.75"/><line class="cls-2" x1="77.75" y1="95.75" x2="77.75" y2="104.75"/><line class="cls-2" x1="113.75" y1="95.75" x2="113.75" y2="104.75"/><line class="cls-2" x1="122.75" y1="95.75" x2="122.75" y2="104.75"/><line class="cls-2" x1="131.75" y1="95.75" x2="131.75" y2="104.75"/><line class="cls-2" x1="140.75" y1="95.75" x2="140.75" y2="104.75"/><line class="cls-2" x1="158.75" y1="95.75" x2="158.75" y2="104.75"/><line class="cls-2" x1="167.75" y1="95.75" x2="167.75" y2="104.75"/><line class="cls-2" x1="203.75" y1="95.75" x2="203.75" y2="104.75"/><line class="cls-2" x1="230.75" y1="95.75" x2="230.75" y2="104.75"/><line class="cls-2" x1="257.75" y1="95.75" x2="257.75" y2="104.75"/><line class="cls-2" x1="266.75" y1="95.75" x2="266.75" y2="104.75"/><line class="cls-2" x1="275.75" y1="95.75" x2="275.75" y2="104.75"/><line class="cls-2" x1="284.75" y1="95.75" x2="284.75" y2="104.75"/><line class="cls-2" x1="293.75" y1="95.75" x2="293.75" y2="104.75"/><line class="cls-2" x1="302.75" y1="95.75" x2="302.75" y2="104.75"/><line class="cls-2" x1="311.75" y1="95.75" x2="311.75" y2="104.75"/><line class="cls-2" x1="320.75" y1="95.75" x2="320.75" y2="104.75"/><line class="cls-2" x1="338.75" y1="95.75" x2="356.75" y2="95.75"/><line class="cls-2" x1="338.75" y1="104.75" x2="356.75" y2="104.75"/><line class="cls-2" x1="329.75" y1="95.75" x2="329.75" y2="104.75"/><polyline class="cls-3" points="307.69 59.62 325.69 59.62 334.69 68.62 334.69 86.62 307.69 86.62 307.69 77.62 316.69 68.62"/><polyline class="cls-3" points="42.62 131.62 33.62 122.62 33.62 59.62 60.62 59.62 60.62 77.62 51.62 86.62 42.62 86.62"/><polyline class="cls-3" points="68.62 86.62 68.62 68.62 77.62 59.62 86.62 59.62"/><polygon class="cls-3" points="98.62 59.62 89.62 68.62 89.62 86.62 107.62 86.62 116.62 77.62 116.62 59.62 98.62 59.62"/><polyline class="cls-3" points="143.62 131.62 152.62 122.62 152.62 59.62 125.62 59.62 125.62 77.62 134.62 86.62 143.62 86.62"/><polyline class="cls-3" points="161.67 86.66 161.6 68.66 170.57 59.62 179.57 59.59"/><polyline class="cls-3" points="203.62 86.62 185.62 86.62 185.62 68.62 194.62 59.62 212.62 59.62 212.62 68.62 203.62 77.62"/><polyline class="cls-3" points="239.62 78.62 221.62 60.62 230.62 51.62 239.62 51.62"/><polyline class="cls-3" points="242.62 87.62 251.62 87.62 260.62 78.62 242.62 60.62 251.62 51.62 260.62 51.62"/><polyline class="cls-3" points="279.62 68.62 288.62 59.62 297.62 59.62 297.62 86.62 270.62 86.62 270.62 23.62 279.62 14.62"/><polyline class="cls-3" points="343.62 86.62 343.62 68.62 352.62 59.62 361.62 59.62"/><polyline class="cls-3" points="221 88.03 230 88.03 239 79.03"/></g></g></svg>