<svg xmlns="http://www.w3.org/2000/svg" viewBox="0 0 332 122.66"><defs><style>.cls-1{fill:none;stroke:#fff;stroke-linecap:square;stroke-width:4px;}</style></defs><title>Asset 80</title><g id="Layer_2" data-name="Layer 2"><g id="PB_white" data-name="PB white"><polyline class="cls-1" points="11 119.83 2 110.83 2 47.83 29 47.83 29 65.83 20 74.83 11 74.83"/><polyline class="cls-1" points="37 74.83 37 56.83 46 47.83 55 47.83"/><polygon class="cls-1" points="67 47.83 58 56.83 58 74.83 76 74.83 85 65.83 85 47.83 67 47.83"/><polyline class="cls-1" points="112 119.83 121 110.83 121 47.83 94 47.83 94 65.83 103 74.83 112 74.83"/><polyline class="cls-1" points="130 74.83 130 56.83 139 47.83 148 47.83"/><polyline class="cls-1" points="172 74.83 154 74.83 154 56.83 163 47.83 181 47.83 181 56.83 172 65.83"/><polyline class="cls-1" points="190 75.83 199 75.83 208 66.83"/><polyline class="cls-1" points="208 66.83 190 48.83 199 39.83 208 39.83"/><polyline class="cls-1" points="211 75.83 220 75.83 229 66.83 211 48.83 220 39.83 229 39.83"/><polyline class="cls-1" points="248 56.83 257 47.83 266 47.83 266 74.83 239 74.83 239 11.83 248 2.83"/><polyline class="cls-1" points="312 74.83 312 56.83 321 47.83 330 47.83"/><polyline class="cls-1" points="276.07 47.83 294.07 47.83 303.07 56.83 303.07 74.83 276.07 74.83 276.07 65.83 285.07 56.83"/></g></g></svg>